<svg width="60" height="60" viewBox="0 0 60 60" fill="none" xmlns="http://www.w3.org/2000/svg">
<circle cx="30" cy="30" r="30" fill="#D9D9D9"/>
<g clip-path="url(#clip0_795_1055)">
<path d="M37.2757 12H22.7249C16.8111 12 12 16.8111 12 22.7249V37.2757C12 43.1896 16.8111 48.0006 22.7249 48.0006H37.2757C43.1896 48.0006 48.0006 43.1896 48.0006 37.2757V22.7249C48.0006 16.8111 43.1896 12 37.2757 12ZM44.3786 37.2757C44.3786 41.1983 41.1983 44.3786 37.2757 44.3786H22.7249C18.8024 44.3786 15.622 41.1983 15.622 37.2757V22.7249C15.622 18.8017 18.8024 15.622 22.7249 15.622H37.2757C41.1983 15.622 44.3786 18.8024 44.3786 22.7249V37.2757Z" fill="#757575"/>
<path d="M30.0004 20.689C24.8665 20.689 20.6892 24.8657 20.6892 30.0001C20.6892 35.1346 24.8659 39.3113 30.0004 39.3113C35.1348 39.3113 39.3115 35.1346 39.3115 30.0001C39.3115 24.8657 35.1348 20.689 30.0004 20.689ZM30.0004 35.6892C26.8579 35.6892 24.3112 33.1419 24.3112 30.0001C24.3112 26.8583 26.8585 24.311 30.0004 24.311C33.1422 24.311 35.6895 26.8583 35.6895 30.0001C35.6895 33.1419 33.1422 35.6892 30.0004 35.6892Z" fill="#757575"/>
<path d="M39.329 22.99C40.5612 22.99 41.5601 21.9911 41.5601 20.7589C41.5601 19.5267 40.5612 18.5278 39.329 18.5278C38.0968 18.5278 37.0979 19.5267 37.0979 20.7589C37.0979 21.9911 38.0968 22.99 39.329 22.99Z" fill="#757575"/>
</g>
<defs>
<clipPath id="clip0_795_1055">
<rect width="36" height="36" fill="white" transform="translate(12 12)"/>
</clipPath>
</defs>
</svg>
